<?xml version="1.0" encoding="utf-8"?>
<!-- Generator: Adobe Illustrator 23.0.1, SVG Export Plug-In . SVG Version: 6.00 Build 0)  -->
<svg version="1.1" id="Capa_1" xmlns="http://www.w3.org/2000/svg" xmlns:xlink="http://www.w3.org/1999/xlink" x="0px" y="0px"
	 viewBox="0 0 188.2 188.2" style="enable-background:new 0 0 188.2 188.2;" xml:space="preserve">
<style type="text/css">
	.st0{fill:#FFFFFF;}
</style>
<g>
	<g>
		<path class="st0" d="M185.8,109.7c0-0.3-0.2-0.5-0.3-0.8c-0.1-0.3-0.2-0.7-0.4-1c0-0.1-0.1-0.1-0.2-0.2c-0.7-1-1.7-1.6-3.1-1.6
			c-0.1,0-0.1-0.1-0.2-0.1c-16.3-1.2-33.3-1.6-50.6-1.4c0-18.4-0.3-36.8-1-55.2c13.5-0.9,27-0.9,39.7,2.3c3.6,0.9,6.5-3.6,3.7-6.3
			c-8.9-8.6-27.4-7.8-43.7-5.9c-0.5-12-1.1-23.9-1.9-35.7c-0.4-5.3-7.9-5.3-8.2,0c-0.8,12.3-1.1,24.7-1.2,37.2
			c-4.2,0.6-7.9,1.1-11,1.3c-17.6,1.5-35.1,1.8-52.8,2.6c-0.2-9.2-1.5-17.9-5.8-22.9c-1.3-1.5-2.9-1.5-4.1-0.7
			c-0.7-5.3-4.1-9.9-9.5-12.2c-6.6-2.8-15.7,1.9-18,8.5c-6.6,6.7-6.7,17.6,2,22.6c9.1,5.3,19.8-1.2,23.9-9.8c0.6,4.9,1,9.9,1.3,14.8
			c-11.8,0.4-27.5,0.9-36.1,6.6c-1.6,1.1-1.9,3.6,0,4.6l1.4,0.8c0.5,0.3,1,0.1,1.3-0.4c1.5-2.3,23.4-2.8,33.7-2.9
			c0.5,19.3-0.6,38.8-1.2,58.2c-13.1,2.2-25.9,4.9-38.2,8.1C2.6,121.2,3,126,6,125.6c12.5-1.4,24.9-2.5,37.3-3.4
			c-0.3,21.2,0.6,42.3,5.6,62.8c1.3,5.4,9.3,3.1,8.3-2.3c-3.8-20-4.4-40.6-4.2-61.2c22.4-1.5,44.9-2.4,67.3-3.3
			c0.9,19.7,1.9,39.3,2.7,58.8c0.2,4.5,6.8,4.5,7,0c0.7-19.6,1-39.4,1.1-59.2c16.8-0.7,33.7-1.6,50.6-2.8c0.1,0,0.1-0.1,0.2-0.1
			c1.4,0,2.4-0.7,3.1-1.6c0.1-0.1,0.1-0.1,0.2-0.2c0.2-0.3,0.3-0.6,0.4-1c0.1-0.3,0.2-0.5,0.3-0.8c0-0.3,0-0.6,0-0.9
			C185.8,110.3,185.8,110,185.8,109.7z M36.6,25.5c-1.4,5.6-7.4,10.3-13.1,8.3c-4.3-1.5-4.3-5.3-3.1-8.7c0.4,0,0.8-0.1,1.2-0.4
			c3.4-2.6,5.1-9.2,10.5-8C36,17.6,37.5,21.9,36.6,25.5z M53.1,110.9c0.2-11.8,0.5-23.6,0.4-35.3c0-5.4,0.7-13.4,1.1-21.7
			c14.2-0.6,28.5-0.2,42.7-1.4c6.9-0.6,13.9-1.3,21.1-2c0,18.1,0.6,36.3,1.4,54.4C97.5,105.7,75,107.6,53.1,110.9z"/>
		<path class="st0" d="M107.7,91.6c-0.9-2.7-2.4-3.6-4.7-5.2c-2.3-1.7-4.3-3.7-6.4-5.7c1.6-1.8,3.3-3.5,5-5.3
			c1.9-1.9,4.2-3.7,5.1-6.3c0.9-3-2.2-6.3-5.2-5.2c-4.2,1.4-8,6.9-11,10.8c-3.3-3.2-6.8-6.3-10.8-8.3c-3-1.5-6.5,2.4-3.8,4.9
			c3.3,3,6.5,6.1,9.6,9.3c-3,3.4-6.1,7.1-7.5,11.1c-1.2,3.5,3.6,6,6.1,3.5c2.6-2.6,5-5.6,7.4-8.5c3.5,3.8,8.4,10.7,13.8,9.3
			C107,95.5,108.3,93.4,107.7,91.6z"/>
		<path class="st0" d="M173.1,138.5c0.5-0.1,0.9-0.3,1.3-0.7c1.5-1.4,2.6-2.2,3.2-4.2c1-3.4-2.3-6.2-5.5-5.5c-3.7,0.8-5.2,4.1-7.3,7
			c-1.8,2.6-3.6,5.2-5.4,7.8c-4.9-3.5-10-6.9-15.5-9.2c-3.7-1.5-5.7,4.2-2.6,6.2c4.7,3,9.2,6.3,13.6,9.6
			c-4.5,6.7-9.8,14.6-10.9,22.6c-0.5,3.5,4.7,6.7,6.4,2.7c2.8-6.6,6.3-12.6,10.2-18.6c0.3-0.5,0.6-0.9,0.9-1.3
			c3.6,3.3,7.4,7.3,11.9,7.7c1.7,0.1,3.7-1.7,3.4-3.4c-0.7-5-6-8.3-10.4-11.2c0.7-1,1.4-2.1,2.2-3.1
			C169.6,143.6,171.7,140.5,173.1,138.5z"/>
		<path class="st0" d="M109.3,143.1c-3.5-7.1-15.6-14.1-22.4-6.9c-8.3,2.3-12,12.4-9.9,20.3c2.8,10.6,14.1,14.1,23.6,10.2
			C110,162.9,113.8,152.1,109.3,143.1z M98.1,158c-4.7,2.8-10.7,1.6-12.7-3.7c-1.7-4.6-0.1-7.8,2.5-10.9c0.4,0.1,0.7,0.2,1.2,0.1
			c4.9-0.1,8.3-2.3,11.5,2.8C103.2,150.4,102.3,155.4,98.1,158z"/>
		<path class="st0" d="M19.6,141c-3-0.5-5,1.8-5.3,4.1c-0.5-0.5-1.2-0.7-1.9-0.6c-8,1.9-10.9,12.4-9.8,19.5
			c1.2,8.1,7.1,14.4,15.5,14.2C39.7,177.5,39.3,144.4,19.6,141z M17.1,169.8c-4.5,0.2-6.7-5.2-7-8.9c-0.5-5.4,2-9,4.7-13.3
			c0.5,0.8,1.3,1.5,2.6,1.7C28,151.3,29.6,169.3,17.1,169.8z"/>
	</g>
</g>
</svg>
